<svg width="0" height="0" class="hidden">
  <symbol xmlns="http://www.w3.org/2000/svg" viewBox="0 0 256 256" id="iconCall">
    <path d="M159.4 40C172.969 43.6417 185.342 50.7885 195.277 60.7231C205.211 70.6577 212.358 83.0306 216 96.6"  stroke-width="16" stroke-linecap="round" stroke-linejoin="round"></path>
    <path d="M151.1 70.9C159.261 73.0675 166.704 77.3538 172.675 83.3247C178.646 89.2956 182.933 96.7388 185.1 104.9" stroke-width="16" stroke-linecap="round" stroke-linejoin="round"></path>
    <path d="M92.5 124.8C100.732 141.8 114.479 155.511 131.5 163.7C132.756 164.294 134.144 164.552 135.529 164.447C136.915 164.341 138.249 163.877 139.4 163.1L164.4 146.4C165.505 145.651 166.781 145.194 168.11 145.071C169.439 144.949 170.777 145.165 172 145.7L218.8 165.8C220.399 166.466 221.736 167.639 222.603 169.139C223.47 170.638 223.821 172.382 223.6 174.1C222.117 185.677 216.466 196.318 207.704 204.03C198.943 211.742 187.672 215.997 176 216C139.931 216 105.338 201.671 79.8335 176.167C54.3285 150.662 40 116.069 40 80C40.0026 68.328 44.2581 57.0568 51.9703 48.2956C59.6824 39.5343 70.3226 33.8833 81.9 32.4C83.6184 32.1793 85.3617 32.5295 86.8615 33.3969C88.3612 34.2642 89.5343 35.6005 90.2 37.2L110.3 84.1C110.823 85.3035 111.041 86.617 110.937 87.9249C110.832 89.2328 110.407 90.4949 109.7 91.6L93 117C92.2565 118.149 91.8201 119.469 91.7326 120.835C91.6451 122.2 91.9093 123.566 92.5 124.8V124.8Z"
    stroke-width="16" stroke-linecap="round" stroke-linejoin="round"></path>
  </symbol>

<symbol xmlns="http://www.w3.org/2000/svg" viewBox="0 0 24 14" id="iconVK">
    <path d="M22.9336 10.7332C22.4116 10.1076 21.8218 9.54896 21.2514 9.00872C21.0509 8.81883 20.8436 8.62247 20.6439 8.42751V8.42751C20.3753 8.16553 20.2436 7.97943 20.2299 7.84209C20.2164 7.70709 20.3087 7.50679 20.5209 7.21072C20.8382 6.76541 21.1764 6.31935 21.5036 5.888C21.7944 5.50456 22.095 5.10804 22.3832 4.70927L22.4479 4.61974C23.0102 3.84152 23.5915 3.03681 23.9031 2.05618C23.992 1.77503 24.0844 1.35896 23.8616 0.993708C23.6386 0.628362 23.2253 0.520081 22.934 0.470487C22.7918 0.446112 22.6568 0.444096 22.5312 0.444096L18.884 0.440862C18.2534 0.430362 17.816 0.729238 17.5776 1.32943C17.3868 1.80877 17.1615 2.36429 16.9004 2.89126C16.401 3.9086 15.7663 5.08034 14.8464 6.05661L14.8056 6.10011C14.7429 6.16695 14.6406 6.27627 14.5881 6.30134C14.4884 6.23872 14.3734 5.88055 14.3787 5.6929C14.3788 5.68826 14.3788 5.68367 14.3788 5.67908L14.3756 1.46485C14.3756 1.44343 14.3741 1.42201 14.3713 1.40077C14.2895 0.799551 14.13 0.196829 13.1784 0.00904696C13.1479 0.00300005 13.1169 0 13.0858 0H9.292C8.57823 0 8.2007 0.326861 7.89802 0.681238C7.81041 0.784551 7.57763 1.05886 7.69622 1.39421C7.81622 1.73354 8.17379 1.80127 8.29116 1.82349C8.7046 1.90196 8.9184 2.13564 8.98459 2.58236C9.11542 3.45035 9.13145 4.3789 9.03512 5.50311C9.00826 5.80494 8.95829 6.03434 8.87767 6.22513C8.85535 6.27795 8.83576 6.31067 8.82207 6.32994C8.80023 6.32113 8.76624 6.30425 8.71918 6.27205C8.42865 6.07325 8.20969 5.7642 7.99796 5.46542C7.15224 4.27137 6.44086 2.95258 5.8229 1.43312C5.56842 0.810473 5.09001 0.462706 4.47669 0.453706C3.30819 0.434252 2.22748 0.434721 1.17391 0.455205C0.676985 0.46383 0.328515 0.620253 0.138014 0.920208C-0.0527213 1.22072 -0.0457369 1.60388 0.158827 2.05923C1.62115 5.31096 2.94893 7.67648 4.46394 9.72933C5.53068 11.1746 6.6045 12.1778 7.84327 12.8866C9.14481 13.6312 10.6127 13.9961 12.3155 13.9961C12.5092 13.9961 12.7062 13.9913 12.9058 13.9818C13.9565 13.9339 14.3839 13.5161 14.4306 12.4928C14.4567 11.952 14.5169 11.5139 14.7257 11.1333C14.7841 11.0267 14.85 10.9553 14.902 10.9422C14.9572 10.9284 15.0551 10.9622 15.164 11.033C15.3631 11.1623 15.5345 11.3376 15.6755 11.4915C15.8183 11.6479 15.9627 11.8095 16.1025 11.9657C16.3998 12.2984 16.7072 12.6424 17.0294 12.9705C17.7579 13.7132 18.5979 14.0538 19.5268 13.9825L22.8645 13.984V13.984C22.8751 13.984 22.8859 13.9837 22.8965 13.983C23.2815 13.9573 23.6143 13.7442 23.8098 13.3981C24.0452 12.9813 24.0416 12.4533 23.8001 11.9852C23.5481 11.4986 23.2212 11.0798 22.9336 10.7332ZM22.9773 12.928C22.9312 13.0095 22.8745 13.0243 22.8452 13.0279L19.5081 13.0263V13.0263C19.495 13.0263 19.4815 13.0269 19.4684 13.028C18.811 13.0827 18.2522 12.8516 17.7118 12.3009C17.4053 11.9886 17.1053 11.6531 16.8153 11.3286C16.674 11.1705 16.5279 11.007 16.3811 10.8463C16.199 10.6474 15.974 10.4189 15.6848 10.2311C15.2519 9.95011 14.8931 9.9586 14.6684 10.0152C14.4461 10.0712 14.13 10.2311 13.8875 10.6738C13.5732 11.2465 13.5039 11.8645 13.4757 12.4482C13.4593 12.8052 13.399 12.8995 13.3738 12.9235C13.3407 12.9549 13.2303 13.0101 12.8618 13.0269C11.091 13.1102 9.60498 12.7931 8.31812 12.0568C7.19864 11.4163 6.21839 10.4963 5.2333 9.16167C3.76025 7.16577 2.46415 4.85445 1.03094 1.6674C0.979003 1.55195 0.962971 1.4799 0.95833 1.44132C0.994893 1.42932 1.06633 1.41352 1.19158 1.41123C2.23446 1.39102 3.30387 1.39046 4.46183 1.40977C4.62036 1.41212 4.80088 1.45969 4.93757 1.79415C5.58323 3.38177 6.32906 4.76341 7.21781 6.01817C7.45378 6.35122 7.74751 6.76578 8.17918 7.06115C8.57457 7.3319 8.89543 7.31896 9.09503 7.26046C9.29472 7.20191 9.57184 7.03926 9.7585 6.59732C9.87892 6.31245 9.95172 5.99169 9.98777 5.5864C10.0908 4.38391 10.0725 3.38416 9.93034 2.44117C9.83017 1.76556 9.48133 1.27749 8.93181 1.02826C9.0294 0.977443 9.13937 0.956255 9.29209 0.956255H13.0363C13.247 1.00351 13.2887 1.05901 13.303 1.07799C13.3637 1.15866 13.3984 1.34949 13.4195 1.4986L13.4227 5.67397C13.4143 6.07423 13.6088 6.96196 14.2712 7.20538C14.2766 7.2074 14.2821 7.20927 14.2876 7.21105C14.8906 7.40812 15.2894 6.98244 15.5036 6.75374L15.5417 6.71314C16.5494 5.64369 17.2279 4.39409 17.758 3.31431C18.0343 2.75673 18.2683 2.17998 18.4661 1.68282C18.5651 1.43349 18.6552 1.39243 18.8702 1.39698C18.8732 1.39707 18.8761 1.39707 18.8791 1.39707L22.5309 1.4003C22.6158 1.4003 22.7045 1.40129 22.7732 1.41305C22.9472 1.44268 23.0189 1.47877 23.0425 1.49373C23.045 1.52143 23.0444 1.60112 22.9918 1.76743C22.7269 2.60129 22.215 3.30977 21.6731 4.05986L21.6083 4.14954C21.3267 4.53916 21.0294 4.93118 20.7419 5.31036C20.4105 5.74728 20.068 6.19902 19.7432 6.65492C19.0487 7.62379 19.1098 8.26673 19.9764 9.11198C20.1812 9.31191 20.3911 9.51075 20.5941 9.70304C21.1698 10.2483 21.7136 10.7634 22.1989 11.3449C22.453 11.6512 22.741 12.019 22.9509 12.4244C23.0604 12.6366 23.0335 12.8283 22.9773 12.928Z" ></path>
  </symbol>
  <symbol xmlns="http://www.w3.org/2000/svg" viewBox="0 0 18 18" id="iconWhatsApp">
    <path d="M15.4745 2.52548C13.8459 0.896871 11.6806 0 9.37747 0C7.07432 0 4.90897 0.896871 3.28036 2.52548C1.65175 4.1541 0.75491 6.31937 0.75491 8.62253C0.75491 10.0815 1.12423 11.5151 1.82524 12.7851L0 18L5.21483 16.1748C6.48482 16.8757 7.91849 17.2451 9.37744 17.2451C11.6806 17.2451 13.8459 16.3482 15.4745 14.7196C17.1031 13.091 18 10.9257 18 8.62253C18 6.31934 17.1031 4.15406 15.4745 2.52548ZM9.37747 16.1893C8.02406 16.1893 6.69568 15.8273 5.53605 15.1425L5.3248 15.0177L1.72097 16.279L2.9823 12.6752L2.85754 12.4639C2.17273 11.3043 1.81076 9.97597 1.81076 8.62256C1.81076 4.45025 5.2052 1.05585 9.37747 1.05585C13.5497 1.05585 16.9442 4.45029 16.9442 8.62256C16.9442 12.7949 13.5497 16.1893 9.37747 16.1893Z"></path>
    <path d="M14.0133 10.7058L12.7691 9.46154C12.3574 9.04986 11.6876 9.04986 11.2759 9.46154L10.7999 9.93748C9.64408 9.3105 8.68945 8.35587 8.06244 7.20004L8.53838 6.72406C8.73782 6.52465 8.84762 6.2595 8.84762 5.97748C8.84762 5.69546 8.73779 5.43031 8.53838 5.2309L7.2941 3.98662C7.09469 3.78721 6.82954 3.67738 6.54752 3.67738C6.26546 3.67738 6.00035 3.78721 5.80094 3.98662L4.80553 4.98203C4.24373 5.54383 4.21729 6.51354 4.7311 7.71241C5.17998 8.75975 6.00182 9.91118 7.04526 10.9546C8.0887 11.9981 9.24014 12.8199 10.2875 13.2688C10.8589 13.5136 11.3781 13.6358 11.826 13.6358C12.3179 13.6358 12.7238 13.4884 13.0179 13.1944L14.0133 12.1989C14.2127 11.9995 14.3225 11.7344 14.3225 11.4524C14.3225 11.1703 14.2127 10.9052 14.0133 10.7058ZM12.2713 12.4478C12.0491 12.67 11.4337 12.6114 10.7034 12.2984C9.77662 11.9012 8.74257 11.1588 7.79184 10.2081C6.84111 9.25735 6.09878 8.22333 5.70155 7.29651C5.38856 6.56624 5.32992 5.9508 5.55207 5.72858L6.54752 4.73316L7.7918 5.97745L6.78215 6.9871L6.94141 7.3233C7.71562 8.95771 9.0421 10.2842 10.6765 11.0584L11.0127 11.2177L12.0224 10.208L13.2667 11.4523L12.2713 12.4478Z"></path>
  </symbol>
  <symbol xmlns="http://www.w3.org/2000/svg" viewBox="0 0 20 18" id="iconTg">
    <path d="M19.5965 0.279259C19.4382 0.142838 19.2455 0.0520454 19.0393 0.0166417C18.8331 -0.018762 18.6211 0.00256257 18.4261 0.0783229L0.725652 7.01542C0.495622 7.1067 0.301223 7.2695 0.171293 7.47968C0.0413641 7.68985 -0.0171729 7.93621 0.0043668 8.18218C0.0259065 8.42816 0.126375 8.66066 0.290868 8.84519C0.455361 9.02972 0.675114 9.15645 0.917527 9.20658L5.72398 10.173V16.0863C5.72107 16.3141 5.78732 16.5374 5.91402 16.727C6.04073 16.9165 6.22196 17.0634 6.43392 17.1484C6.57739 17.2053 6.73041 17.2345 6.88483 17.2345C7.03469 17.2346 7.1831 17.2051 7.32143 17.1476C7.45977 17.0901 7.58529 17.0058 7.6907 16.8996L10.4345 14.163L14.4831 17.7129C14.6905 17.9002 14.9611 18.0027 15.241 17.9999C15.3616 17.9996 15.4814 17.9803 15.5959 17.9425C15.7846 17.8808 15.9542 17.7719 16.0885 17.6261C16.2229 17.4804 16.3175 17.3027 16.3634 17.1101L19.9707 1.39876C20.0179 1.1959 20.0079 0.983954 19.9419 0.786379C19.8759 0.588804 19.7563 0.413294 19.5965 0.279259V0.279259ZM0.764027 8.11578C0.752616 8.03285 0.770246 7.94853 0.813942 7.87706C0.857638 7.80558 0.924722 7.75134 1.00387 7.72348L17.2365 1.37006L6.02139 9.44579L1.07103 8.46025C0.988573 8.4454 0.913502 8.40339 0.857838 8.34093C0.802174 8.27847 0.76914 8.19919 0.764027 8.11578ZM7.14386 16.3542C7.09173 16.4082 7.02449 16.4453 6.95091 16.4607C6.87732 16.476 6.8008 16.4689 6.73133 16.4403C6.66059 16.4118 6.59998 16.3628 6.55726 16.2998C6.51454 16.2367 6.49164 16.1624 6.49148 16.0863V10.6993L9.85888 13.6559L7.14386 16.3542ZM19.2224 1.2361L15.6151 16.9379C15.6007 17.003 15.5691 17.063 15.5236 17.1118C15.478 17.1606 15.4202 17.1964 15.3561 17.2153C15.2942 17.2375 15.2273 17.2421 15.1629 17.2286C15.0986 17.2151 15.0392 17.184 14.9915 17.1388L6.72173 9.88594L19.1648 0.920343C19.1962 0.965953 19.2175 1.01766 19.2274 1.07208C19.2374 1.1265 19.2356 1.1824 19.2224 1.2361V1.2361Z"></path>
  </symbol>
    <symbol xmlns="http://www.w3.org/2000/svg" viewBox="0 0 17 23" id="iconGeo">
    <path d="M8.49956 5.25879C7.88091 5.25879 7.27614 5.43823 6.76175 5.77442C6.24736 6.11061 5.84644 6.58845 5.60969 7.14752C5.37294 7.70658 5.31099 8.32176 5.43169 8.91526C5.55238 9.50876 5.85029 10.0539 6.28775 10.4818C6.7252 10.9097 7.28255 11.2011 7.88932 11.3192C8.49609 11.4372 9.12502 11.3766 9.69659 11.145C10.2682 10.9135 10.7567 10.5213 11.1004 10.0182C11.4441 9.51503 11.6275 8.92349 11.6275 8.31837C11.6266 7.5072 11.2967 6.72952 10.7103 6.15594C10.1239 5.58236 9.32886 5.25971 8.49956 5.25879ZM8.49956 9.84815C8.19023 9.84815 7.88785 9.75843 7.63066 9.59034C7.37346 9.42224 7.173 9.18332 7.05462 8.90379C6.93625 8.62426 6.90528 8.31667 6.96562 8.01992C7.02597 7.72317 7.17493 7.45059 7.39365 7.23664C7.61238 7.0227 7.89106 6.877 8.19444 6.81797C8.49783 6.75894 8.81229 6.78924 9.09807 6.90503C9.38386 7.02081 9.62812 7.21689 9.79997 7.46846C9.97183 7.72003 10.0636 8.0158 10.0636 8.31837C10.0631 8.72395 9.89814 9.11278 9.60494 9.39957C9.31174 9.68636 8.91421 9.84769 8.49956 9.84815Z"></path>
    <path d="M14.5103 2.43452C13.0242 0.981243 11.0403 0.117936 8.94172 0.0112208C6.84309 -0.0954946 4.77844 0.561946 3.14624 1.85666C1.51404 3.15137 0.429999 4.99156 0.103345 7.02209C-0.223309 9.05261 0.230576 11.1295 1.3774 12.8519L7.28669 21.7253C7.41819 21.9228 7.598 22.085 7.8098 22.1973C8.02161 22.3096 8.25872 22.3684 8.49964 22.3684C8.74056 22.3684 8.97766 22.3096 9.18947 22.1973C9.40128 22.085 9.58108 21.9228 9.71258 21.7253L15.6221 12.8519C16.6862 11.2541 17.1565 9.3471 16.954 7.45048C16.7516 5.55386 15.8889 3.78293 14.5103 2.43452ZM14.3116 12.0169L8.49966 20.7439L2.68763 12.0169C0.908595 9.34558 1.29016 5.77065 3.59489 3.51622C4.23899 2.8862 5.00365 2.38643 5.84521 2.04546C6.68677 1.70449 7.58876 1.52899 8.49966 1.52899C9.41056 1.52899 10.3125 1.70449 11.1541 2.04546C11.9957 2.38643 12.7603 2.8862 13.4044 3.51622C15.7092 5.77065 16.0907 9.34558 14.3116 12.0169Z"></path>
  </symbol>
  <symbol xmlns="http://www.w3.org/2000/svg" viewBox="0 0 19 16" id="iconMail">
    <path d="M16.1111 1H2.88889C1.84568 1 1 1.84568 1 2.88889V12.3333C1 13.3765 1.84568 14.2222 2.88889 14.2222H16.1111C17.1543 14.2222 18 13.3765 18 12.3333V2.88889C18 1.84568 17.1543 1 16.1111 1Z" stroke-width="1.5" stroke-linecap="round" stroke-linejoin="round"></path>
    <path d="M1 2.88867L9.5 8.55534L18 2.88867" stroke-width="1.5" stroke-linecap="round" stroke-linejoin="round"></path>
  </symbol>
  <symbol  xmlns="http://www.w3.org/2000/svg" viewBox="0 0 34 34" id="iconTime">
    <path d="M17 34C7.6 34 0 26.4 0 17C0 7.6 7.6 0 17 0C26.4 0 34 7.6 34 17C34 26.4 26.4 34 17 34ZM17 2C8.7 2 2 8.7 2 17C2 25.3 8.7 32 17 32C25.3 32 32 25.3 32 17C32 8.7 25.3 2 17 2Z"></path>
    <path d="M22.3 25.7L16 19.4V8H18V18.6L23.7 24.3L22.3 25.7Z"></path>
  </symbol>
   <symbol  xmlns="http://www.w3.org/2000/svg" viewBox="0 0 25 25" id="iconCross">
    <path d="M16.2368 12.4996L24.2255 4.51088C25.2577 3.47872 25.2577 1.80629 24.2255 0.77413C23.1933 -0.258028 21.5209 -0.258028 20.4887 0.77413L12.5 8.76372L4.51135 0.775028C3.4792 -0.257129 1.80676 -0.257129 0.774607 0.775028C-0.257551 1.80719 -0.257551 3.47962 0.774607 4.51178L8.7633 12.5005L0.774607 20.4892C-0.257551 21.5213 -0.257551 23.1938 0.774607 24.2259C1.80676 25.2581 3.4792 25.2581 4.51135 24.2259L12.5 16.2372L20.4887 24.2259C21.5209 25.2581 23.1933 25.2581 24.2255 24.2259C25.2577 23.1937 25.2577 21.5213 24.2255 20.4892L16.2368 12.4996Z" ></path>
  </symbol>
</svg>

