<svg width="25" height="25" viewBox="0 0 25 25" fill="none" xmlns="http://www.w3.org/2000/svg">
<path d="M16.2368 12.4996L24.2255 4.51088C25.2577 3.47872 25.2577 1.80629 24.2255 0.77413C23.1933 -0.258028 21.5209 -0.258028 20.4887 0.77413L12.5 8.76372L4.51135 0.775028C3.4792 -0.257129 1.80676 -0.257129 0.774607 0.775028C-0.257551 1.80719 -0.257551 3.47962 0.774607 4.51178L8.7633 12.5005L0.774607 20.4892C-0.257551 21.5213 -0.257551 23.1938 0.774607 24.2259C1.80676 25.2581 3.4792 25.2581 4.51135 24.2259L12.5 16.2372L20.4887 24.2259C21.5209 25.2581 23.1933 25.2581 24.2255 24.2259C25.2577 23.1937 25.2577 21.5213 24.2255 20.4892L16.2368 12.4996Z" fill="black"/>
</svg>
