<svg width="20" height="18" viewBox="0 0 20 18" fill="none" xmlns="http://www.w3.org/2000/svg">
<path d="M19.5965 0.279259C19.4382 0.142838 19.2455 0.0520454 19.0393 0.0166417C18.8331 -0.018762 18.6211 0.00256257 18.4261 0.0783229L0.725652 7.01542C0.495622 7.1067 0.301223 7.2695 0.171293 7.47968C0.0413641 7.68985 -0.0171729 7.93621 0.0043668 8.18218C0.0259065 8.42816 0.126375 8.66066 0.290868 8.84519C0.455361 9.02972 0.675114 9.15645 0.917527 9.20658L5.72398 10.173V16.0863C5.72107 16.3141 5.78732 16.5374 5.91402 16.727C6.04073 16.9165 6.22196 17.0634 6.43392 17.1484C6.57739 17.2053 6.73041 17.2345 6.88483 17.2345C7.03469 17.2346 7.1831 17.2051 7.32143 17.1476C7.45977 17.0901 7.58529 17.0058 7.6907 16.8996L10.4345 14.163L14.4831 17.7129C14.6905 17.9002 14.9611 18.0027 15.241 17.9999C15.3616 17.9996 15.4814 17.9803 15.5959 17.9425C15.7846 17.8808 15.9542 17.7719 16.0885 17.6261C16.2229 17.4804 16.3175 17.3027 16.3634 17.1101L19.9707 1.39876C20.0179 1.1959 20.0079 0.983954 19.9419 0.786379C19.8759 0.588804 19.7563 0.413294 19.5965 0.279259V0.279259ZM0.764027 8.11578C0.752616 8.03285 0.770246 7.94853 0.813942 7.87706C0.857638 7.80558 0.924722 7.75134 1.00387 7.72348L17.2365 1.37006L6.02139 9.44579L1.07103 8.46025C0.988573 8.4454 0.913502 8.40339 0.857838 8.34093C0.802174 8.27847 0.76914 8.19919 0.764027 8.11578ZM7.14386 16.3542C7.09173 16.4082 7.02449 16.4453 6.95091 16.4607C6.87732 16.476 6.8008 16.4689 6.73133 16.4403C6.66059 16.4118 6.59998 16.3628 6.55726 16.2998C6.51454 16.2367 6.49164 16.1624 6.49148 16.0863V10.6993L9.85888 13.6559L7.14386 16.3542ZM19.2224 1.2361L15.6151 16.9379C15.6007 17.003 15.5691 17.063 15.5236 17.1118C15.478 17.1606 15.4202 17.1964 15.3561 17.2153C15.2942 17.2375 15.2273 17.2421 15.1629 17.2286C15.0986 17.2151 15.0392 17.184 14.9915 17.1388L6.72173 9.88594L19.1648 0.920343C19.1962 0.965953 19.2175 1.01766 19.2274 1.07208C19.2374 1.1265 19.2356 1.1824 19.2224 1.2361V1.2361Z" fill="white"/>
</svg>
