<svg width="256" height="256" viewBox="0 0 256 256" fill="none" xmlns="http://www.w3.org/2000/svg">
<path d="M159.4 40C172.969 43.6417 185.342 50.7885 195.277 60.7231C205.211 70.6577 212.358 83.0306 216 96.6" stroke="black" stroke-width="16" stroke-linecap="round" stroke-linejoin="round"/>
<path d="M151.1 70.9C159.261 73.0675 166.704 77.3538 172.675 83.3247C178.646 89.2956 182.933 96.7388 185.1 104.9" stroke="black" stroke-width="16" stroke-linecap="round" stroke-linejoin="round"/>
<path d="M92.5 124.8C100.732 141.8 114.479 155.511 131.5 163.7C132.756 164.294 134.144 164.552 135.529 164.447C136.915 164.341 138.249 163.877 139.4 163.1L164.4 146.4C165.505 145.651 166.781 145.194 168.11 145.071C169.439 144.949 170.777 145.165 172 145.7L218.8 165.8C220.399 166.466 221.736 167.639 222.603 169.139C223.47 170.638 223.821 172.382 223.6 174.1C222.117 185.677 216.466 196.318 207.704 204.03C198.943 211.742 187.672 215.997 176 216C139.931 216 105.338 201.671 79.8335 176.167C54.3285 150.662 40 116.069 40 80C40.0026 68.328 44.2581 57.0568 51.9703 48.2956C59.6824 39.5343 70.3226 33.8833 81.9 32.4C83.6184 32.1793 85.3617 32.5295 86.8615 33.3969C88.3612 34.2642 89.5343 35.6005 90.2 37.2L110.3 84.1C110.823 85.3035 111.041 86.617 110.937 87.9249C110.832 89.2328 110.407 90.4949 109.7 91.6L93 117C92.2565 118.149 91.8201 119.469 91.7326 120.835C91.6451 122.2 91.9093 123.566 92.5 124.8V124.8Z" stroke="black" stroke-width="16" stroke-linecap="round" stroke-linejoin="round"/>
</svg>
