<svg width="17" height="23" viewBox="0 0 17 23" fill="none" xmlns="http://www.w3.org/2000/svg">
<path d="M8.49956 5.25879C7.88091 5.25879 7.27614 5.43823 6.76175 5.77442C6.24736 6.11061 5.84644 6.58845 5.60969 7.14752C5.37294 7.70658 5.31099 8.32176 5.43169 8.91526C5.55238 9.50876 5.85029 10.0539 6.28775 10.4818C6.7252 10.9097 7.28255 11.2011 7.88932 11.3192C8.49609 11.4372 9.12502 11.3766 9.69659 11.145C10.2682 10.9135 10.7567 10.5213 11.1004 10.0182C11.4441 9.51503 11.6275 8.92349 11.6275 8.31837C11.6266 7.5072 11.2967 6.72952 10.7103 6.15594C10.1239 5.58236 9.32886 5.25971 8.49956 5.25879ZM8.49956 9.84815C8.19023 9.84815 7.88785 9.75843 7.63066 9.59034C7.37346 9.42224 7.173 9.18332 7.05462 8.90379C6.93625 8.62426 6.90528 8.31667 6.96562 8.01992C7.02597 7.72317 7.17493 7.45059 7.39365 7.23664C7.61238 7.0227 7.89106 6.877 8.19444 6.81797C8.49783 6.75894 8.81229 6.78924 9.09807 6.90503C9.38386 7.02081 9.62812 7.21689 9.79997 7.46846C9.97183 7.72003 10.0636 8.0158 10.0636 8.31837C10.0631 8.72395 9.89814 9.11278 9.60494 9.39957C9.31174 9.68636 8.91421 9.84769 8.49956 9.84815Z" fill="#BB9147"/>
<path d="M14.5103 2.43452C13.0242 0.981243 11.0403 0.117936 8.94172 0.0112208C6.84309 -0.0954946 4.77844 0.561946 3.14624 1.85666C1.51404 3.15137 0.429999 4.99156 0.103345 7.02209C-0.223309 9.05261 0.230576 11.1295 1.3774 12.8519L7.28669 21.7253C7.41819 21.9228 7.598 22.085 7.8098 22.1973C8.02161 22.3096 8.25872 22.3684 8.49964 22.3684C8.74056 22.3684 8.97766 22.3096 9.18947 22.1973C9.40128 22.085 9.58108 21.9228 9.71258 21.7253L15.6221 12.8519C16.6862 11.2541 17.1565 9.3471 16.954 7.45048C16.7516 5.55386 15.8889 3.78293 14.5103 2.43452ZM14.3116 12.0169L8.49966 20.7439L2.68763 12.0169C0.908595 9.34558 1.29016 5.77065 3.59489 3.51622C4.23899 2.8862 5.00365 2.38643 5.84521 2.04546C6.68677 1.70449 7.58876 1.52899 8.49966 1.52899C9.41056 1.52899 10.3125 1.70449 11.1541 2.04546C11.9957 2.38643 12.7603 2.8862 13.4044 3.51622C15.7092 5.77065 16.0907 9.34558 14.3116 12.0169Z" fill="#BB9147"/>
</svg>
