<svg width="16" height="16" viewBox="0 0 16 16" fill="none" xmlns="http://www.w3.org/2000/svg">
<path d="M12.736 3.97C12.8043 3.90037 12.8857 3.84505 12.9756 3.80728C13.0655 3.76952 13.162 3.75007 13.2595 3.75007C13.357 3.75007 13.4535 3.76952 13.5434 3.80728C13.6333 3.84505 13.7148 3.90037 13.783 3.97C14.069 4.259 14.073 4.726 13.793 5.02L7.88001 12.01C7.81288 12.0837 7.73141 12.143 7.64059 12.1841C7.54977 12.2253 7.45151 12.2475 7.35182 12.2493C7.25213 12.2512 7.1531 12.2327 7.0608 12.195C6.9685 12.1573 6.88487 12.1011 6.81501 12.03L3.21701 8.384C3.07825 8.24249 3.00052 8.0522 3.00052 7.854C3.00052 7.6558 3.07825 7.46551 3.21701 7.324C3.28526 7.25437 3.36671 7.19905 3.4566 7.16128C3.54649 7.12352 3.64301 7.10407 3.74051 7.10407C3.83801 7.10407 3.93453 7.12352 4.02442 7.16128C4.11431 7.19905 4.19576 7.25437 4.26401 7.324L7.31601 10.417L12.716 3.992C12.7222 3.98427 12.7289 3.97692 12.736 3.97Z" fill="white"/>
</svg>
