<svg width="18" height="18" viewBox="0 0 18 18" fill="none" xmlns="http://www.w3.org/2000/svg">
<path d="M15.4745 2.52548C13.8459 0.896871 11.6806 0 9.37747 0C7.07432 0 4.90897 0.896871 3.28036 2.52548C1.65175 4.1541 0.75491 6.31937 0.75491 8.62253C0.75491 10.0815 1.12423 11.5151 1.82524 12.7851L0 18L5.21483 16.1748C6.48482 16.8757 7.91849 17.2451 9.37744 17.2451C11.6806 17.2451 13.8459 16.3482 15.4745 14.7196C17.1031 13.091 18 10.9257 18 8.62253C18 6.31934 17.1031 4.15406 15.4745 2.52548ZM9.37747 16.1893C8.02406 16.1893 6.69568 15.8273 5.53605 15.1425L5.3248 15.0177L1.72097 16.279L2.9823 12.6752L2.85754 12.4639C2.17273 11.3043 1.81076 9.97597 1.81076 8.62256C1.81076 4.45025 5.2052 1.05585 9.37747 1.05585C13.5497 1.05585 16.9442 4.45029 16.9442 8.62256C16.9442 12.7949 13.5497 16.1893 9.37747 16.1893Z" fill="white"/>
<path d="M14.0133 10.7058L12.7691 9.46154C12.3574 9.04986 11.6876 9.04986 11.2759 9.46154L10.7999 9.93748C9.64408 9.3105 8.68945 8.35587 8.06244 7.20004L8.53838 6.72406C8.73782 6.52465 8.84762 6.2595 8.84762 5.97748C8.84762 5.69546 8.73779 5.43031 8.53838 5.2309L7.2941 3.98662C7.09469 3.78721 6.82954 3.67738 6.54752 3.67738C6.26546 3.67738 6.00035 3.78721 5.80094 3.98662L4.80553 4.98203C4.24373 5.54383 4.21729 6.51354 4.7311 7.71241C5.17998 8.75975 6.00182 9.91118 7.04526 10.9546C8.0887 11.9981 9.24014 12.8199 10.2875 13.2688C10.8589 13.5136 11.3781 13.6358 11.826 13.6358C12.3179 13.6358 12.7238 13.4884 13.0179 13.1944L14.0133 12.1989C14.2127 11.9995 14.3225 11.7344 14.3225 11.4524C14.3225 11.1703 14.2127 10.9052 14.0133 10.7058ZM12.2713 12.4478C12.0491 12.67 11.4337 12.6114 10.7034 12.2984C9.77662 11.9012 8.74257 11.1588 7.79184 10.2081C6.84111 9.25735 6.09878 8.22333 5.70155 7.29651C5.38856 6.56624 5.32992 5.9508 5.55207 5.72858L6.54752 4.73316L7.7918 5.97745L6.78215 6.9871L6.94141 7.3233C7.71562 8.95771 9.0421 10.2842 10.6765 11.0584L11.0127 11.2177L12.0224 10.208L13.2667 11.4523L12.2713 12.4478Z" fill="white"/>
</svg>
