<svg width="24" height="14" viewBox="0 0 24 14" fill="none" xmlns="http://www.w3.org/2000/svg">
<path d="M22.9336 10.7332C22.4116 10.1076 21.8218 9.54896 21.2514 9.00872C21.0509 8.81883 20.8436 8.62247 20.6439 8.42751V8.42751C20.3753 8.16553 20.2436 7.97943 20.2299 7.84209C20.2164 7.70709 20.3087 7.50679 20.5209 7.21072C20.8382 6.76541 21.1764 6.31935 21.5036 5.888C21.7944 5.50456 22.095 5.10804 22.3832 4.70927L22.4479 4.61974C23.0102 3.84152 23.5915 3.03681 23.9031 2.05618C23.992 1.77503 24.0844 1.35896 23.8616 0.993708C23.6386 0.628362 23.2253 0.520081 22.934 0.470487C22.7918 0.446112 22.6568 0.444096 22.5312 0.444096L18.884 0.440862C18.2534 0.430362 17.816 0.729238 17.5776 1.32943C17.3868 1.80877 17.1615 2.36429 16.9004 2.89126C16.401 3.9086 15.7663 5.08034 14.8464 6.05661L14.8056 6.10011C14.7429 6.16695 14.6406 6.27627 14.5881 6.30134C14.4884 6.23872 14.3734 5.88055 14.3787 5.6929C14.3788 5.68826 14.3788 5.68367 14.3788 5.67908L14.3756 1.46485C14.3756 1.44343 14.3741 1.42201 14.3713 1.40077C14.2895 0.799551 14.13 0.196829 13.1784 0.00904696C13.1479 0.00300005 13.1169 0 13.0858 0H9.292C8.57823 0 8.2007 0.326861 7.89802 0.681238C7.81041 0.784551 7.57763 1.05886 7.69622 1.39421C7.81622 1.73354 8.17379 1.80127 8.29116 1.82349C8.7046 1.90196 8.9184 2.13564 8.98459 2.58236C9.11542 3.45035 9.13145 4.3789 9.03512 5.50311C9.00826 5.80494 8.95829 6.03434 8.87767 6.22513C8.85535 6.27795 8.83576 6.31067 8.82207 6.32994C8.80023 6.32113 8.76624 6.30425 8.71918 6.27205C8.42865 6.07325 8.20969 5.7642 7.99796 5.46542C7.15224 4.27137 6.44086 2.95258 5.8229 1.43312C5.56842 0.810473 5.09001 0.462706 4.47669 0.453706C3.30819 0.434252 2.22748 0.434721 1.17391 0.455205C0.676985 0.46383 0.328515 0.620253 0.138014 0.920208C-0.0527213 1.22072 -0.0457369 1.60388 0.158827 2.05923C1.62115 5.31096 2.94893 7.67648 4.46394 9.72933C5.53068 11.1746 6.6045 12.1778 7.84327 12.8866C9.14481 13.6312 10.6127 13.9961 12.3155 13.9961C12.5092 13.9961 12.7062 13.9913 12.9058 13.9818C13.9565 13.9339 14.3839 13.5161 14.4306 12.4928C14.4567 11.952 14.5169 11.5139 14.7257 11.1333C14.7841 11.0267 14.85 10.9553 14.902 10.9422C14.9572 10.9284 15.0551 10.9622 15.164 11.033C15.3631 11.1623 15.5345 11.3376 15.6755 11.4915C15.8183 11.6479 15.9627 11.8095 16.1025 11.9657C16.3998 12.2984 16.7072 12.6424 17.0294 12.9705C17.7579 13.7132 18.5979 14.0538 19.5268 13.9825L22.8645 13.984V13.984C22.8751 13.984 22.8859 13.9837 22.8965 13.983C23.2815 13.9573 23.6143 13.7442 23.8098 13.3981C24.0452 12.9813 24.0416 12.4533 23.8001 11.9852C23.5481 11.4986 23.2212 11.0798 22.9336 10.7332ZM22.9773 12.928C22.9312 13.0095 22.8745 13.0243 22.8452 13.0279L19.5081 13.0263V13.0263C19.495 13.0263 19.4815 13.0269 19.4684 13.028C18.811 13.0827 18.2522 12.8516 17.7118 12.3009C17.4053 11.9886 17.1053 11.6531 16.8153 11.3286C16.674 11.1705 16.5279 11.007 16.3811 10.8463C16.199 10.6474 15.974 10.4189 15.6848 10.2311C15.2519 9.95011 14.8931 9.9586 14.6684 10.0152C14.4461 10.0712 14.13 10.2311 13.8875 10.6738C13.5732 11.2465 13.5039 11.8645 13.4757 12.4482C13.4593 12.8052 13.399 12.8995 13.3738 12.9235C13.3407 12.9549 13.2303 13.0101 12.8618 13.0269C11.091 13.1102 9.60498 12.7931 8.31812 12.0568C7.19864 11.4163 6.21839 10.4963 5.2333 9.16167C3.76025 7.16577 2.46415 4.85445 1.03094 1.6674C0.979003 1.55195 0.962971 1.4799 0.95833 1.44132C0.994893 1.42932 1.06633 1.41352 1.19158 1.41123C2.23446 1.39102 3.30387 1.39046 4.46183 1.40977C4.62036 1.41212 4.80088 1.45969 4.93757 1.79415C5.58323 3.38177 6.32906 4.76341 7.21781 6.01817C7.45378 6.35122 7.74751 6.76578 8.17918 7.06115C8.57457 7.3319 8.89543 7.31896 9.09503 7.26046C9.29472 7.20191 9.57184 7.03926 9.7585 6.59732C9.87892 6.31245 9.95172 5.99169 9.98777 5.5864C10.0908 4.38391 10.0725 3.38416 9.93034 2.44117C9.83017 1.76556 9.48133 1.27749 8.93181 1.02826C9.0294 0.977443 9.13937 0.956255 9.29209 0.956255H13.0363C13.247 1.00351 13.2887 1.05901 13.303 1.07799C13.3637 1.15866 13.3984 1.34949 13.4195 1.4986L13.4227 5.67397C13.4143 6.07423 13.6088 6.96196 14.2712 7.20538C14.2766 7.2074 14.2821 7.20927 14.2876 7.21105C14.8906 7.40812 15.2894 6.98244 15.5036 6.75374L15.5417 6.71314C16.5494 5.64369 17.2279 4.39409 17.758 3.31431C18.0343 2.75673 18.2683 2.17998 18.4661 1.68282C18.5651 1.43349 18.6552 1.39243 18.8702 1.39698C18.8732 1.39707 18.8761 1.39707 18.8791 1.39707L22.5309 1.4003C22.6158 1.4003 22.7045 1.40129 22.7732 1.41305C22.9472 1.44268 23.0189 1.47877 23.0425 1.49373C23.045 1.52143 23.0444 1.60112 22.9918 1.76743C22.7269 2.60129 22.215 3.30977 21.6731 4.05986L21.6083 4.14954C21.3267 4.53916 21.0294 4.93118 20.7419 5.31036C20.4105 5.74728 20.068 6.19902 19.7432 6.65492C19.0487 7.62379 19.1098 8.26673 19.9764 9.11198C20.1812 9.31191 20.3911 9.51075 20.5941 9.70304C21.1698 10.2483 21.7136 10.7634 22.1989 11.3449C22.453 11.6512 22.741 12.019 22.9509 12.4244C23.0604 12.6366 23.0335 12.8283 22.9773 12.928Z" fill="white"/>
</svg>
